<?xml version="1.0" encoding="UTF-8"?>
<!-- Generator: Adobe Illustrator 27.5.0, SVG Export Plug-In . SVG Version: 6.00 Build 0)  -->
<svg version="1.1" id="BACKGROUND" xmlns="http://www.w3.org/2000/svg" xmlns:xlink="http://www.w3.org/1999/xlink" x="0px" y="0px" viewBox="0 0 750 500" style="enable-background:new 0 0 750 500;" xml:space="preserve">
<rect width="750" height="500" style="fill:#FFF0;"/>
<g>
	<defs>
		<rect id="SVGID_1_" width="750" height="500"/>
	</defs>
	<clipPath id="SVGID_00000173131913006413894430000007729099006135588524_">
		<use xlink:href="#SVGID_1_" style="overflow:visible;"/>
	</clipPath>
	<g style="clip-path:url(#SVGID_00000173131913006413894430000007729099006135588524_);">
		<g>
			
				<path style="fill:none;stroke:#000000;stroke-width:8;stroke-linecap:round;stroke-linejoin:round;stroke-miterlimit:10;stroke-dasharray:0,9,0,9,0,9;" d="     M753.684,534.121c6.602-7.596,13.283-15.31,17.649-24.378c18.79-39.028-2-86.51-10.531-125.308     c-5.161-23.473-7.243-48.634,1.478-71.029c9.351-24.015,29.927-41.848,51.452-56.02c21.525-14.171,44.877-25.825,64.322-42.738"/>
			
				<path style="fill:none;stroke:#000000;stroke-width:7.7727;stroke-linecap:round;stroke-linejoin:round;stroke-miterlimit:10;stroke-dasharray:0,8.8182,0,8.8182,0,8.8182;" d="     M875.452,210.332c-9.576,9.059-20.679,16.656-32.122,23.561c-11.426,6.894-23.247,13.051-34.473,19.985     c-21.862,13.504-42.242,31.065-52.475,54.381c-5.247,11.953-7.761,24.82-7.819,38.174c-0.054,11.408,1.619,23.047,4.152,34.239     c2.814,12.467,6.996,25.672,10.849,39.137c2.444,8.513,4.761,17.135,6.477,25.805c2.023,10.246,3.204,20.558,2.843,30.678     c-0.399,11.139-2.664,22.01-7.565,32.314c-4.433,9.32-11.196,17.307-17.903,25.144"/>
			
				<path style="fill:none;stroke:#000000;stroke-width:7.5455;stroke-linecap:round;stroke-linejoin:round;stroke-miterlimit:10;stroke-dasharray:0,8.6364,0,8.6364,0,8.6364;" d="     M872.851,206.015c-9.421,9.654-20.92,17.704-32.837,24.709c-11.9,6.995-24.323,12.859-36.032,19.646     c-22.175,12.853-42.418,30.136-53.498,52.742c-5.803,11.838-9.257,24.673-9.743,38.389c-0.424,11.725,1.197,23.834,3.887,35.408     c2.961,12.809,7.463,26.245,11.69,39.879c2.692,8.634,5.286,17.356,7.227,26.177c2.282,10.414,3.652,20.96,3.366,31.345     c-0.316,11.424-2.632,22.58-7.606,33.16c-4.5,9.572-11.344,17.831-18.157,25.91"/>
			
				<path style="fill:none;stroke:#000000;stroke-width:7.3182;stroke-linecap:round;stroke-linejoin:round;stroke-miterlimit:10;stroke-dasharray:0,8.4545,0,8.4545,0,8.4545;" d="     M870.251,201.698c-9.267,10.249-21.16,18.75-33.552,25.857c-12.375,7.096-25.389,12.671-37.591,19.307     c-22.467,12.22-42.631,29.214-54.521,51.103c-6.373,11.733-10.753,24.526-11.668,38.604c-0.793,12.041,0.776,24.62,3.622,36.577     c3.109,13.152,7.93,26.819,12.531,40.621c2.941,8.755,5.81,17.578,7.976,26.549c2.541,10.581,4.099,21.362,3.889,32.012     c-0.234,11.71-2.6,23.15-7.647,34.006c-4.567,9.825-11.493,18.356-18.411,26.676"/>
			
				<path style="fill:none;stroke:#000000;stroke-width:7.0909;stroke-linecap:round;stroke-linejoin:round;stroke-miterlimit:10;stroke-dasharray:0,8.2727,0,8.2727,0,8.2727;" d="     M867.65,197.38c-9.112,10.844-21.401,19.797-34.266,27.005c-12.85,7.198-26.447,12.486-39.149,18.968     c-22.741,11.604-42.882,28.294-55.544,49.464c-6.959,11.635-12.249,24.379-13.592,38.819     c-1.163,12.358,0.354,25.407,3.357,37.746c3.257,13.494,8.397,27.393,13.372,41.362c3.19,8.875,6.335,17.799,8.725,26.921     c2.8,10.749,4.547,21.764,4.412,32.679c-0.151,11.995-2.568,23.72-7.688,34.852c-4.635,10.077-11.642,18.88-18.665,27.442"/>
			
				<path style="fill:none;stroke:#000000;stroke-width:6.8636;stroke-linecap:round;stroke-linejoin:round;stroke-miterlimit:10;stroke-dasharray:0,8.0909,0,8.0909,0,8.0909;" d="     M865.049,193.064c-8.958,11.439-21.641,20.844-34.981,28.152c-13.325,7.299-27.496,12.307-40.708,18.629     c-22.998,11.005-43.171,27.373-56.567,47.825c-7.561,11.544-13.745,24.232-15.516,39.034     c-1.533,12.675-0.067,26.194,3.093,38.915c3.405,13.836,8.864,27.967,14.213,42.104c3.438,8.996,6.859,18.02,9.475,27.293     c3.059,10.916,4.994,22.167,4.935,33.346c-0.068,12.281-2.535,24.291-7.729,35.698c-4.702,10.329-11.791,19.405-18.92,28.208"/>
			
				<path style="fill:none;stroke:#000000;stroke-width:6.6364;stroke-linecap:round;stroke-linejoin:round;stroke-miterlimit:10;stroke-dasharray:0,7.9091,0,7.9091,0,7.9091;" d="     M862.449,188.746c-8.803,12.035-21.881,21.891-35.696,29.3c-13.8,7.4-28.538,12.133-42.267,18.29     c-23.24,10.423-43.496,26.447-57.59,46.186c-8.179,11.455-15.241,24.085-17.441,39.249c-1.903,12.991-0.488,26.98,2.828,40.083     c3.553,14.178,9.331,28.54,15.055,42.846c3.687,9.117,7.383,18.242,10.224,27.665c3.318,11.083,5.441,22.569,5.458,34.013     c0.014,12.566-2.503,24.861-7.771,36.544c-4.769,10.582-11.94,19.929-19.174,28.975"/>
			
				<path style="fill:none;stroke:#000000;stroke-width:6.4091;stroke-linecap:round;stroke-linejoin:round;stroke-miterlimit:10;stroke-dasharray:0,7.7273,0,7.7273,0,7.7273;" d="     M859.848,184.429c-8.649,12.63-22.122,22.938-36.411,30.448c-14.275,7.501-29.574,11.965-43.826,17.951     c-23.47,9.857-43.856,25.514-58.613,44.547c-8.813,11.367-16.737,23.938-19.365,39.464c-2.273,13.308-0.91,27.767,2.563,41.252     c3.7,14.521,9.769,29.126,15.896,43.587c3.917,9.246,7.908,18.463,10.974,28.037c3.577,11.251,5.889,22.971,5.981,34.679     c0.097,12.852-2.471,25.431-7.812,37.39c-4.837,10.834-12.088,20.453-19.428,29.741"/>
			
				<path style="fill:none;stroke:#000000;stroke-width:6.1818;stroke-linecap:round;stroke-linejoin:round;stroke-miterlimit:10;stroke-dasharray:0,7.5455,0,7.5455,0,7.5455;" d="     M857.248,180.112c-8.495,13.225-22.362,23.985-37.125,31.595c-14.75,7.602-30.604,11.804-45.385,17.611     c-23.688,9.308-44.247,24.57-59.636,42.908c-9.463,11.277-18.233,23.791-21.289,39.679c-2.643,13.625-1.331,28.554,2.298,42.421     c3.848,14.863,10.234,29.702,16.737,44.329c4.164,9.368,8.432,18.685,11.723,28.409c3.836,11.418,6.336,23.373,6.504,35.346     c0.179,13.137-2.439,26.001-7.853,38.236c-4.904,11.087-12.237,20.978-19.682,30.507"/>
			
				<path style="fill:none;stroke:#000000;stroke-width:5.9545;stroke-linecap:round;stroke-linejoin:round;stroke-miterlimit:10;stroke-dasharray:0,7.3636,0,7.3636,0,7.3636;" d="     M854.647,175.795c-8.34,13.82-22.603,25.032-37.84,32.743c-15.225,7.703-31.629,11.65-46.943,17.272     c-23.898,8.773-44.669,23.613-60.659,41.269c-10.128,11.183-19.729,23.645-23.214,39.894c-3.013,13.941-1.753,29.341,2.033,43.59     c3.996,15.205,10.7,30.277,17.578,45.071c4.412,9.489,8.957,18.906,12.472,28.781c4.095,11.585,6.784,23.776,7.027,36.013     c0.262,13.423-2.407,26.571-7.894,39.082c-4.971,11.339-12.386,21.503-19.936,31.273"/>
			
				<path style="fill:none;stroke:#000000;stroke-width:5.7273;stroke-linecap:round;stroke-linejoin:round;stroke-miterlimit:10;stroke-dasharray:0,7.1818,0,7.1818,0,7.1818;" d="     M852.047,171.478c-8.186,14.415-22.843,26.079-38.555,33.891c-15.7,7.804-32.649,11.504-48.502,16.933     c-24.099,8.253-45.117,22.642-61.682,39.63c-10.807,11.082-21.225,23.497-25.138,40.109c-3.383,14.258-2.174,30.127,1.768,44.759     c4.143,15.548,11.166,30.852,18.419,45.812c4.66,9.611,9.481,19.128,13.221,29.153c4.354,11.753,7.231,24.178,7.55,36.68     c0.344,13.708-2.375,27.141-7.935,39.928c-5.039,11.591-12.535,22.027-20.191,32.039"/>
			
				<path style="fill:none;stroke:#000000;stroke-width:5.5;stroke-linecap:round;stroke-linejoin:round;stroke-miterlimit:10;stroke-dasharray:0,7,0,7,0,7;" d="     M849.446,167.161c-8.031,15.011-23.084,27.126-39.27,35.039c-16.174,7.906-33.665,11.365-50.061,16.594     c-24.294,7.748-45.588,21.656-62.705,37.991c-11.499,10.974-22.721,23.351-27.063,40.324     c-3.753,14.574-2.595,30.914,1.503,45.927c4.291,15.89,11.632,31.427,19.261,46.554c4.908,9.733,10.005,19.349,13.971,29.525     c4.613,11.92,7.679,24.58,8.073,37.347c0.427,13.994-2.343,27.711-7.976,40.774c-5.106,11.844-12.684,22.551-20.445,32.805"/>
			
				<path style="fill:none;stroke:#000000;stroke-width:5.2727;stroke-linecap:round;stroke-linejoin:round;stroke-miterlimit:10;stroke-dasharray:0,6.8182,0,6.8182,0,6.8182;" d="     M846.845,162.844c-7.877,15.606-23.324,28.173-39.985,36.186c-16.649,8.007-34.678,11.235-51.62,16.255     c-24.484,7.255-46.079,20.653-63.728,36.352c-12.204,10.856-24.217,23.204-28.987,40.539     c-4.122,14.891-3.017,31.701,1.238,47.096c4.439,16.232,12.099,32.001,20.102,47.296c5.156,9.854,10.53,19.57,14.72,29.897     c4.872,12.087,8.126,24.983,8.596,38.014c0.51,14.279-2.31,28.282-8.017,41.62c-5.173,12.096-12.832,23.076-20.699,33.571"/>
			
				<path style="fill:none;stroke:#000000;stroke-width:5.0455;stroke-linecap:round;stroke-linejoin:round;stroke-miterlimit:10;stroke-dasharray:0,6.6364,0,6.6364,0,6.6364;" d="     M844.245,158.527c-7.722,16.201-23.565,29.219-40.699,37.334c-17.124,8.108-35.688,11.113-53.178,15.916     c-24.669,6.775-46.587,19.633-64.751,34.713c-12.92,10.727-25.713,23.057-30.911,40.754c-4.492,15.208-3.438,32.487,0.973,48.265     c4.587,16.574,12.565,32.576,20.943,48.037c5.405,9.975,11.054,19.792,15.47,30.269c5.131,12.255,8.574,25.385,9.119,38.681     c0.592,14.564-2.279,28.852-8.058,42.466c-5.241,12.349-12.981,23.6-20.953,34.338"/>
			
				<path style="fill:none;stroke:#000000;stroke-width:4.8182;stroke-linecap:round;stroke-linejoin:round;stroke-miterlimit:10;stroke-dasharray:0,6.4545,0,6.4545,0,6.4545;" d="     M841.644,154.21c-7.568,16.796-23.805,30.266-41.414,38.482c-17.599,8.209-36.696,10.999-54.737,15.577     c-24.851,6.306-47.109,18.596-65.774,33.074c-13.646,10.585-27.209,22.91-32.835,40.969c-4.862,15.524-3.86,33.274,0.708,49.434     c4.734,16.917,13.032,33.15,21.784,48.779c5.654,10.096,11.579,20.013,16.219,30.641c5.39,12.422,9.021,25.787,9.642,39.348     c0.675,14.85-2.246,29.422-8.099,43.312c-5.308,12.601-13.13,24.125-21.207,35.104"/>
			
				<path style="fill:none;stroke:#000000;stroke-width:4.5909;stroke-linecap:round;stroke-linejoin:round;stroke-miterlimit:10;stroke-dasharray:0,6.2727,0,6.2727,0,6.2727;" d="     M839.043,149.893c-7.413,17.391-24.045,31.313-42.129,39.63c-18.074,8.31-37.702,10.893-56.296,15.238     c-25.031,5.848-47.642,17.542-66.797,31.436c-14.381,10.431-28.705,22.763-34.76,41.184c-5.232,15.841-4.281,34.061,0.443,50.603     c4.882,17.259,13.5,33.724,22.625,49.521c5.902,10.218,12.103,20.235,16.968,31.013c5.649,12.59,9.469,26.189,10.165,40.014     c0.757,15.135-2.214,29.992-8.14,44.158c-5.375,12.853-13.279,24.649-21.462,35.87"/>
			
				<path style="fill:none;stroke:#000000;stroke-width:4.3636;stroke-linecap:round;stroke-linejoin:round;stroke-miterlimit:10;stroke-dasharray:0,6.0909,0,6.0909,0,6.0909;" d="     M836.443,145.576c-7.259,17.987-24.286,32.36-42.844,40.777c-18.549,8.411-38.707,10.796-57.855,14.898     c-25.21,5.401-48.184,16.471-67.82,29.797c-15.123,10.262-30.201,22.616-36.684,41.399c-5.602,16.157-4.702,34.848,0.178,51.771     c5.03,17.601,13.968,34.298,23.466,50.262c6.152,10.339,12.627,20.456,17.718,31.385c5.908,12.757,9.916,26.592,10.688,40.681     c0.84,15.421-2.182,30.562-8.181,45.004c-5.443,13.106-13.428,25.174-21.716,36.636"/>
			
				<path style="fill:none;stroke:#000000;stroke-width:4.1364;stroke-linecap:round;stroke-linejoin:round;stroke-miterlimit:10;stroke-dasharray:0,5.9091,0,5.9091,0,5.9091;" d="     M833.842,141.259c-7.104,18.582-24.526,33.407-43.559,41.925c-19.024,8.513-39.711,10.708-59.414,14.56     c-25.388,4.963-48.732,15.385-68.843,28.158c-15.872,10.08-31.697,22.469-38.609,41.614c-5.972,16.474-5.124,35.634-0.086,52.94     c5.177,17.943,14.436,34.872,24.308,51.004c6.401,10.459,13.152,20.677,18.467,31.757c6.167,12.924,10.364,26.994,11.211,41.348     c0.922,15.706-2.15,31.132-8.223,45.85c-5.51,13.358-13.576,25.698-21.97,37.402"/>
			
				<path style="fill:none;stroke:#000000;stroke-width:3.9091;stroke-linecap:round;stroke-linejoin:round;stroke-miterlimit:10;stroke-dasharray:0,5.7273,0,5.7273,0,5.7273;" d="     M831.242,136.941c-6.95,19.177-24.767,34.454-44.273,43.073c-19.499,8.614-40.714,10.627-60.972,14.22     c-25.566,4.535-49.284,14.283-69.867,26.519c-16.625,9.884-33.193,22.322-40.533,41.829c-6.342,16.791-5.545,36.421-0.351,54.109     c5.325,18.286,14.935,35.426,25.149,51.746c6.671,10.567,13.676,20.899,19.217,32.129c6.426,13.092,10.811,27.396,11.734,42.015     c1.005,15.992-2.118,31.703-8.264,46.696c-5.577,13.611-13.725,26.223-22.224,38.168"/>
			
				<path style="fill:none;stroke:#000000;stroke-width:3.6818;stroke-linecap:round;stroke-linejoin:round;stroke-miterlimit:10;stroke-dasharray:0,5.5455,0,5.5455,0,5.5455;" d="     M828.641,132.624c-6.795,19.772-25.007,35.501-44.988,44.221c-19.973,8.715-41.718,10.555-62.531,13.881     c-25.744,4.114-49.839,13.166-70.889,24.88c-17.383,9.673-34.689,22.175-42.457,42.044c-6.712,17.107-5.967,37.208-0.616,55.278     c5.473,18.628,15.402,35.999,25.99,52.487c6.919,10.688,14.201,21.12,19.966,32.501c6.685,13.259,11.259,27.798,12.257,42.682     c1.087,16.277-2.086,32.273-8.305,47.542c-5.645,13.863-13.874,26.747-22.478,38.935"/>
			
				<path style="fill:none;stroke:#000000;stroke-width:3.4546;stroke-linecap:round;stroke-linejoin:round;stroke-miterlimit:10;stroke-dasharray:0,5.3636,0,5.3636,0,5.3636;" d="     M826.04,128.307c-6.641,20.367-25.248,36.548-45.703,45.368c-20.448,8.816-42.721,10.491-64.09,13.542     c-25.923,3.702-50.394,12.036-71.913,23.241c-18.143,9.448-36.185,22.028-44.381,42.259c-7.082,17.424-6.388,37.994-0.881,56.447     c5.621,18.97,15.87,36.573,26.831,53.229c7.168,10.809,14.725,21.342,20.715,32.873c6.944,13.427,11.706,28.201,12.78,43.349     c1.17,16.563-2.054,32.843-8.346,48.388c-5.712,14.116-14.023,27.272-22.733,39.701"/>
			
				<path style="fill:none;stroke:#000000;stroke-width:3.2273;stroke-linecap:round;stroke-linejoin:round;stroke-miterlimit:10;stroke-dasharray:0,5.1818,0,5.1818,0,5.1818;" d="     M823.44,123.99c-6.487,20.963-25.488,37.595-46.418,46.516c-20.923,8.917-43.725,10.435-65.649,13.203     c-26.103,3.296-50.948,10.892-72.935,21.602c-18.906,9.209-37.681,21.881-46.306,42.474c-7.451,17.74-6.809,38.781-1.146,57.616     c5.768,19.312,16.336,37.147,27.672,53.97c7.417,10.93,15.249,21.563,21.465,33.245c7.203,13.594,12.154,28.603,13.303,44.016     c1.252,16.848-2.021,33.413-8.387,49.234c-5.78,14.368-14.172,27.796-22.987,40.467"/>
			
				<path style="fill:none;stroke:#000000;stroke-width:3;stroke-linecap:round;stroke-linejoin:round;stroke-miterlimit:10;stroke-dasharray:0,5,0,5,0,5;" d="     M820.839,119.673c-6.332,21.558-25.729,38.642-47.132,47.664c-21.398,9.018-44.73,10.386-67.207,12.864     c-26.285,2.897-51.5,9.737-73.958,19.963c-19.669,8.956-39.177,21.734-48.23,42.689c-7.822,18.057-7.231,39.568-1.411,58.784     c5.916,19.655,16.804,37.721,28.513,54.712c7.665,11.051,15.774,21.785,22.214,33.617c7.462,13.761,12.601,29.005,13.826,44.683     c1.335,17.134-1.989,33.983-8.428,50.08c-5.847,14.62-14.32,28.321-23.241,41.233"/>
			
				<path style="fill:none;stroke:#000000;stroke-width:2.7727;stroke-linecap:round;stroke-linejoin:round;stroke-miterlimit:10;stroke-dasharray:0,4.8182,0,4.8182,0,4.8182;" d="     M818.239,115.356c-6.178,22.153-25.969,39.688-47.847,48.811c-21.873,9.12-45.736,10.346-68.766,12.525     c-26.469,2.505-52.05,8.571-74.982,18.324c-20.433,8.69-40.673,21.587-50.155,42.904c-8.191,18.374-7.652,40.355-1.676,59.953     c6.064,19.997,17.27,38.294,29.354,55.454c7.914,11.172,16.298,22.006,22.964,33.989c7.721,13.929,13.048,29.407,14.349,45.349     c1.417,17.419-1.957,34.553-8.469,50.926c-5.914,14.873-14.469,28.845-23.495,41.999"/>
			
				<path style="fill:none;stroke:#000000;stroke-width:2.5454;stroke-linecap:round;stroke-linejoin:round;stroke-miterlimit:10;stroke-dasharray:0,4.6364,0,4.6364,0,4.6364;" d="     M815.638,111.039c-6.023,22.748-26.209,40.735-48.562,49.959c-22.348,9.221-46.743,10.312-70.325,12.186     c-26.655,2.118-52.595,7.394-76.005,16.685c-21.196,8.413-42.169,21.44-52.079,43.119c-8.561,18.69-8.074,41.141-1.941,61.122     c6.212,20.339,17.738,38.868,30.196,56.195c8.163,11.293,16.823,22.228,23.713,34.361c7.98,14.096,13.496,29.81,14.872,46.016     c1.5,17.704-1.925,35.124-8.51,51.772c-5.981,15.125-14.618,29.37-23.749,42.765"/>
			
				<path style="fill:none;stroke:#000000;stroke-width:2.3182;stroke-linecap:round;stroke-linejoin:round;stroke-miterlimit:10;stroke-dasharray:0,4.4545,0,4.4545,0,4.4545;" d="     M813.037,106.722c-5.869,23.343-26.45,41.782-49.277,51.107c-22.823,9.322-47.752,10.286-71.884,11.846     c-26.844,1.736-53.136,6.208-77.028,15.046c-21.957,8.123-43.664,21.293-54.003,43.334c-8.931,19.007-8.495,41.928-2.206,62.291     c6.359,20.681,18.204,39.442,31.037,56.937c8.411,11.413,17.347,22.449,24.462,34.733c8.24,14.263,13.943,30.212,15.396,46.683     c1.583,17.99-1.893,35.694-8.551,52.618c-6.049,15.378-14.767,29.894-24.004,43.531"/>
			
				<path style="fill:none;stroke:#000000;stroke-width:2.0909;stroke-linecap:round;stroke-linejoin:round;stroke-miterlimit:10;stroke-dasharray:0,4.2727,0,4.2727,0,4.2727;" d="     M810.437,102.405c-5.714,23.939-26.69,42.829-49.992,52.255c-23.298,9.423-48.763,10.266-73.442,11.507     c-27.035,1.359-53.672,5.013-78.051,13.407c-22.717,7.822-45.16,21.146-55.928,43.549c-9.301,19.324-8.916,42.715-2.471,63.46     c6.507,21.024,18.672,40.016,31.878,57.679c8.66,11.534,17.871,22.67,25.211,35.105c8.499,14.431,14.391,30.614,15.919,47.35     c1.665,18.275-1.861,36.264-8.592,53.464c-6.116,15.63-14.916,30.419-24.258,44.297"/>
			
				<path style="fill:none;stroke:#000000;stroke-width:1.8636;stroke-linecap:round;stroke-linejoin:round;stroke-miterlimit:10;stroke-dasharray:0,4.0909,0,4.0909,0,4.0909;" d="     M807.836,98.088c-5.56,24.534-26.931,43.876-50.706,53.402c-23.772,9.524-49.775,10.254-75.001,11.168     c-27.229,0.987-54.202,3.81-79.074,11.768c-23.475,7.511-46.656,20.999-57.852,43.764c-9.671,19.64-9.338,43.501-2.735,64.628     c6.655,21.366,19.138,40.589,32.719,58.421c8.908,11.655,18.396,22.892,25.961,35.477c8.757,14.598,14.838,31.016,16.442,48.017     c1.748,18.561-1.829,36.834-8.634,54.31c-6.183,15.882-15.065,30.943-24.512,45.064"/>
			
				<path style="fill:none;stroke:#000000;stroke-width:1.6364;stroke-linecap:round;stroke-linejoin:round;stroke-miterlimit:10;stroke-dasharray:0,3.9091,0,3.9091,0,3.9091;" d="     M805.236,93.771c-5.405,25.129-27.171,44.923-51.421,54.55c-24.247,9.625-50.789,10.248-76.56,10.829     c-27.427,0.619-54.726,2.6-80.097,10.129c-24.229,7.19-48.152,20.852-59.776,43.979c-10.041,19.957-9.759,44.288-3.001,65.797     c6.803,21.708,19.606,41.163,33.561,59.162c9.157,11.776,18.92,23.113,26.71,35.849c9.016,14.765,15.286,31.419,16.965,48.684     c1.83,18.846-1.797,37.404-8.675,55.156c-6.251,16.135-15.213,31.468-24.766,45.83"/>
			
				<path style="fill:none;stroke:#000000;stroke-width:1.4091;stroke-linecap:round;stroke-linejoin:round;stroke-miterlimit:10;stroke-dasharray:0,3.7273,0,3.7273,0,3.7273;" d="     M802.635,89.454c-5.251,25.724-27.412,45.97-52.136,55.698c-24.722,9.727-51.805,10.248-78.119,10.49     c-27.627,0.255-55.245,1.384-81.12,8.49c-24.982,6.861-49.648,20.705-61.701,44.194c-10.411,20.273-10.181,45.075-3.265,66.966     c6.95,22.05,20.073,41.737,34.402,59.904c9.406,11.897,19.445,23.335,27.46,36.221c9.276,14.933,15.733,31.821,17.488,49.351     c1.913,19.132-1.764,37.974-8.716,56.002c-6.318,16.387-15.362,31.992-25.02,46.596"/>
			
				<path style="fill:none;stroke:#000000;stroke-width:1.1818;stroke-linecap:round;stroke-linejoin:round;stroke-miterlimit:10;stroke-dasharray:0,3.5454,0,3.5454,0,3.5454;" d="     M800.034,85.137c-5.096,26.32-27.652,47.017-52.851,56.846c-25.197,9.828-52.824,10.254-79.678,10.151     c-27.83-0.106-55.757,0.162-82.143,6.851c-25.73,6.523-51.144,20.558-63.625,44.41c-10.781,20.59-10.602,45.862-3.53,68.135     c7.098,22.393,20.539,42.311,35.243,60.645c9.654,12.018,19.969,23.556,28.209,36.593c9.535,15.1,16.181,32.223,18.011,50.018     c1.995,19.417-1.732,38.544-8.757,56.848c-6.385,16.639-15.511,32.517-25.275,47.362"/>
			
				<path style="fill:none;stroke:#000000;stroke-width:0.9545;stroke-linecap:round;stroke-linejoin:round;stroke-miterlimit:10;stroke-dasharray:0,3.3636,0,3.3636,0,3.3636;" d="     M797.434,80.82c-4.942,26.915-27.892,48.064-53.565,57.993c-25.672,9.929-53.845,10.265-81.236,9.812     c-28.037-0.464-56.263-1.065-83.166,5.213c-26.475,6.178-52.64,20.411-65.549,44.624c-11.15,20.907-11.024,46.648-3.795,69.304     c7.246,22.735,21.006,42.884,36.084,61.387c9.903,12.138,20.493,23.777,28.958,36.965c9.794,15.268,16.628,32.625,18.534,50.685     c2.078,19.703-1.7,39.115-8.798,57.694c-6.453,16.892-15.66,33.041-25.529,48.128"/>
			
				<path style="fill:none;stroke:#000000;stroke-width:0.7273;stroke-linecap:round;stroke-linejoin:round;stroke-miterlimit:10;stroke-dasharray:0,3.1818,0,3.1818,0,3.1818;" d="     M794.833,76.503c-4.787,27.51-28.133,49.111-54.28,59.141c-26.147,10.03-54.868,10.282-82.795,9.473     c-28.247-0.819-56.763-2.297-84.189,3.574c-27.217,5.826-54.136,20.264-67.474,44.839c-11.52,21.223-11.445,47.435-4.06,70.472     c7.394,23.077,21.474,43.458,36.925,62.129c10.152,12.259,21.018,23.999,29.708,37.337     c10.052,15.435,17.076,33.028,19.057,51.351c2.16,19.988-1.668,39.685-8.839,58.54c-6.52,17.144-15.809,33.566-25.783,48.895"/>
			
				<path style="fill:none;stroke:#000000;stroke-width:0.5;stroke-linecap:round;stroke-linejoin:round;stroke-miterlimit:10;stroke-dasharray:0,3,0,3,0,3;" d="     M792.233,72.185c-4.633,28.105-28.373,50.158-54.995,60.289c-26.622,10.131-55.894,10.305-84.354,9.134     c-28.46-1.171-57.257-3.532-85.212,1.935c-27.955,5.467-55.632,20.117-69.398,45.055c-11.89,21.54-11.866,48.222-4.325,71.641     c7.541,23.419,21.941,44.032,37.766,62.87c10.4,12.38,21.542,24.22,30.457,37.71c10.312,15.602,17.523,33.43,19.58,52.018     c4.283,38.709-13.753,76.353-34.917,109.046"/>
		</g>
		<g>
			
				<path style="fill:none;stroke:#000000;stroke-width:8;stroke-linecap:round;stroke-linejoin:round;stroke-miterlimit:10;stroke-dasharray:0,9,0,9,0,9;" d="     M-23.419-40.958c-6.725,7.737-13.531,15.596-17.978,24.832c-19.14,39.756,2.038,88.123,10.728,127.645     c5.257,23.911,7.378,49.541-1.505,72.354c-9.526,24.462-30.485,42.629-52.412,57.064c-21.926,14.436-45.714,26.307-65.521,43.535     "/>
			
				<path style="fill:none;stroke:#000000;stroke-width:7.7794;stroke-linecap:round;stroke-linejoin:round;stroke-miterlimit:10;stroke-dasharray:0,8.8235,0,8.8235,0,8.8235;" d="     M-147.536,288.74c9.759-9.21,21.058-16.936,32.7-23.966c11.624-7.02,23.648-13.3,35.069-20.368     c22.26-13.775,43.025-31.673,53.423-55.444c5.328-12.18,7.861-25.287,7.907-38.879c0.044-11.611-1.662-23.453-4.238-34.843     c-2.862-12.689-7.113-26.133-11.026-39.845c-2.482-8.668-4.834-17.448-6.576-26.275c-2.053-10.433-3.25-20.929-2.88-31.23     c0.409-11.338,2.715-22.403,7.705-32.891c4.514-9.486,11.4-17.614,18.229-25.59"/>
			
				<path style="fill:none;stroke:#000000;stroke-width:7.5588;stroke-linecap:round;stroke-linejoin:round;stroke-miterlimit:10;stroke-dasharray:0,8.6471,0,8.6471,0,8.6471;" d="     M-144.965,293.009c9.606-9.798,21.296-17.971,33.407-25.101c12.094-7.12,24.712-13.11,36.611-20.033     c22.57-13.131,43.197-30.754,54.435-53.824c5.877-12.065,9.34-25.142,9.81-39.092c0.409-11.924-1.245-24.231-3.976-35.998     c-3.008-13.028-7.575-26.7-11.858-40.578c-2.728-8.787-5.353-17.667-7.316-26.643c-2.309-10.598-3.693-21.327-3.397-31.89     c0.327-11.621,2.683-22.967,7.746-33.728c4.58-9.736,11.547-18.132,18.48-26.347"/>
			
				<path style="fill:none;stroke:#000000;stroke-width:7.3382;stroke-linecap:round;stroke-linejoin:round;stroke-miterlimit:10;stroke-dasharray:0,8.4706,0,8.4706,0,8.4706;" d="     M-142.393,297.277c9.454-10.387,21.533-19.006,34.113-26.236c12.563-7.22,25.767-12.924,38.152-19.698     c22.861-12.504,43.406-29.841,55.446-52.203c6.44-11.961,10.819-24.997,11.712-39.305c0.775-12.238-0.828-25.009-3.714-37.154     c-3.154-13.366-8.036-27.268-12.689-41.312c-2.974-8.907-5.871-17.885-8.057-27.01c-2.565-10.764-4.135-21.725-3.914-32.549     C-31.1,9.908-28.694-1.72-23.559-12.754c4.647-9.985,11.694-18.651,18.732-27.105"/>
			
				<path style="fill:none;stroke:#000000;stroke-width:7.1177;stroke-linecap:round;stroke-linejoin:round;stroke-miterlimit:10;stroke-dasharray:0,8.2941,0,8.2941,0,8.2941;" d="     M-139.822,301.545c9.301-10.975,21.771-20.041,34.82-27.371c13.033-7.32,26.813-12.741,39.693-19.362     c23.133-11.893,43.65-28.932,56.458-50.583c7.018-11.864,12.298-24.852,13.615-39.517c1.141-12.551-0.412-25.787-3.452-38.31     c-3.3-13.705-8.498-27.835-13.521-42.045c-3.219-9.026-6.39-18.104-8.798-27.378c-2.821-10.929-4.578-22.122-4.431-33.208     c0.164-12.185,2.619-24.094,7.827-35.4C-12.899-21.864-5.771-30.799,1.37-39.492"/>
			
				<path style="fill:none;stroke:#000000;stroke-width:6.8971;stroke-linecap:round;stroke-linejoin:round;stroke-miterlimit:10;stroke-dasharray:0,8.1177,0,8.1177,0,8.1177;" d="     M-137.251,305.813c9.148-11.563,22.009-21.076,35.526-28.505c13.503-7.42,27.852-12.563,41.234-19.027     c23.389-11.299,43.931-28.022,57.469-48.962c7.611-11.773,13.777-24.706,15.518-39.73c1.506-12.864,0.005-26.564-3.19-39.465     c-3.446-14.043-8.96-28.402-14.353-42.778c-3.465-9.146-6.908-18.323-9.539-27.746c-3.077-11.094-5.02-22.52-4.949-33.868     c0.082-12.467,2.588-24.658,7.868-36.237c4.78-10.484,11.988-19.688,19.234-28.62"/>
			
				<path style="fill:none;stroke:#000000;stroke-width:6.6765;stroke-linecap:round;stroke-linejoin:round;stroke-miterlimit:10;stroke-dasharray:0,7.9412,0,7.9412,0,7.9412;" d="     M-134.68,310.082c8.995-12.152,22.246-22.111,36.233-29.64c13.972-7.52,28.884-12.39,42.775-18.692     c23.631-10.72,44.246-27.107,58.48-47.342c8.22-11.685,15.256-24.561,17.42-39.942c1.872-13.177,0.422-27.342-2.928-40.621     c-3.592-14.381-9.421-28.969-15.184-43.511c-3.711-9.265-7.427-18.542-10.28-28.114c-3.333-11.26-5.463-22.918-5.466-34.527     c0-12.749,2.556-25.222,7.908-37.073c4.846-10.734,12.135-20.207,19.486-29.377"/>
			
				<path style="fill:none;stroke:#000000;stroke-width:6.4559;stroke-linecap:round;stroke-linejoin:round;stroke-miterlimit:10;stroke-dasharray:0,7.7647,0,7.7647,0,7.7647;" d="     M-132.109,314.35c8.843-12.74,22.484-23.146,36.94-30.775c14.442-7.62,29.909-12.223,44.316-18.357     c23.861-10.158,44.596-26.186,59.492-45.722c8.844-11.597,16.735-24.416,19.323-40.155c2.238-13.49,0.838-28.12-2.666-41.776     c-3.738-14.72-9.883-29.537-16.016-44.245C5.323,83.936,1.335,74.56-1.741,64.839C-5.33,53.414-7.646,41.524-7.724,29.653     C-7.805,16.621-5.2,3.867,0.225-8.257C5.138-19.24,12.508-28.982,19.962-38.392"/>
			
				<path style="fill:none;stroke:#000000;stroke-width:6.2353;stroke-linecap:round;stroke-linejoin:round;stroke-miterlimit:10;stroke-dasharray:0,7.5882,0,7.5882,0,7.5882;" d="     M-129.538,318.618c8.69-13.329,22.722-24.181,37.647-31.91c14.911-7.72,30.928-12.062,45.857-18.021     c24.079-9.611,44.976-25.255,60.503-44.101c9.483-11.509,18.214-24.27,21.225-40.367c2.603-13.803,1.255-28.898-2.404-42.932     c-3.884-15.058-10.314-30.118-16.848-44.978c-4.183-9.513-8.464-18.98-11.762-28.85c-3.845-11.591-6.347-23.713-6.5-35.846     C-1.981,18.3,0.674,5.264,6.171-7.133c4.98-11.233,12.43-21.244,19.988-30.892"/>
			
				<path style="fill:none;stroke:#000000;stroke-width:6.0147;stroke-linecap:round;stroke-linejoin:round;stroke-miterlimit:10;stroke-dasharray:0,7.4118,0,7.4118,0,7.4118;" d="     M-126.966,322.886c8.537-13.917,22.96-25.216,38.353-33.044c15.381-7.82,31.943-11.908,47.399-17.686     c24.288-9.079,45.386-24.313,61.515-42.481c10.136-11.417,19.694-24.125,23.128-40.58c2.969-14.116,1.672-29.676-2.142-44.088     c-4.03-15.396-10.774-30.686-17.679-45.711c-4.428-9.633-8.982-19.199-12.503-29.217c-4.102-11.756-6.79-24.111-7.017-36.505     C3.843,19.978,6.548,6.661,12.117-6.009c5.046-11.483,12.577-21.762,20.24-31.65"/>
			
				<path style="fill:none;stroke:#000000;stroke-width:5.7941;stroke-linecap:round;stroke-linejoin:round;stroke-miterlimit:10;stroke-dasharray:0,7.2353,0,7.2353,0,7.2353;" d="     M-124.395,327.155c8.385-14.506,23.197-26.251,39.06-34.179c15.85-7.92,32.952-11.761,48.94-17.351     c24.489-8.562,45.821-23.357,62.526-40.86c10.804-11.32,21.173-23.98,25.03-40.793c3.335-14.429,2.088-30.453-1.88-45.243     c-4.176-15.735-11.234-31.255-18.511-46.445c-4.673-9.754-9.501-19.418-13.244-29.585c-4.358-11.922-7.232-24.508-7.534-37.164     C9.666,21.656,12.421,8.058,18.063-4.885c5.113-11.732,12.724-22.281,20.491-32.407"/>
			
				<path style="fill:none;stroke:#000000;stroke-width:5.5735;stroke-linecap:round;stroke-linejoin:round;stroke-miterlimit:10;stroke-dasharray:0,7.0588,0,7.0588,0,7.0588;" d="     M-121.824,331.423c8.232-15.094,23.435-27.286,39.767-35.314c16.32-8.02,33.958-11.622,50.481-17.015     c24.684-8.057,46.28-22.387,63.538-39.24c11.484-11.215,22.652-23.835,26.933-41.005c3.701-14.742,2.505-31.231-1.618-46.399     c-4.322-16.073-11.695-31.823-19.343-47.178c-4.918-9.874-10.019-19.637-13.985-29.953c-4.614-12.087-7.675-24.906-8.051-37.824     c-0.408-14.16,2.397-28.04,8.111-41.255C29.188-15.742,36.88-26.56,44.751-36.925"/>
			
				<path style="fill:none;stroke:#000000;stroke-width:5.3529;stroke-linecap:round;stroke-linejoin:round;stroke-miterlimit:10;stroke-dasharray:0,6.8823,0,6.8823,0,6.8823;" d="     M-119.253,335.691c8.079-15.683,23.673-28.322,40.473-36.449c16.789-8.12,34.961-11.49,52.022-16.68     c24.873-7.566,46.759-21.401,64.549-37.62c12.177-11.102,24.131-23.689,28.836-41.218c4.066-15.055,2.922-32.009-1.357-47.554     c-4.468-16.412-12.156-32.392-20.174-47.911c-5.163-9.994-10.538-19.856-14.725-30.321c-4.87-12.253-8.117-25.304-8.568-38.483     c-0.489-14.443,2.365-28.604,8.152-42.092c5.246-12.231,13.018-23.318,20.994-33.922"/>
			
				<path style="fill:none;stroke:#000000;stroke-width:5.1323;stroke-linecap:round;stroke-linejoin:round;stroke-miterlimit:10;stroke-dasharray:0,6.7059,0,6.7059,0,6.7059;" d="     M-116.682,339.959c7.926-16.271,23.91-29.357,41.18-37.583c17.259-8.22,35.961-11.367,53.563-16.345     c25.057-7.087,47.256-20.398,65.561-35.999c12.881-10.978,25.61-23.544,30.738-41.43c4.432-15.368,3.338-32.787-1.095-48.71     c-4.615-16.75-12.618-32.959-21.006-48.644c-5.409-10.114-11.056-20.075-15.466-30.689c-5.126-12.418-8.559-25.701-9.085-39.142     c-0.571-14.725,2.333-29.168,8.192-42.928c5.312-12.481,13.165-23.836,21.245-34.68"/>
			
				<path style="fill:none;stroke:#000000;stroke-width:4.9118;stroke-linecap:round;stroke-linejoin:round;stroke-miterlimit:10;stroke-dasharray:0,6.5294,0,6.5294,0,6.5294;" d="     M-114.11,344.228c7.774-16.86,24.148-30.392,41.887-38.718c17.728-8.32,36.958-11.251,55.104-16.009     c25.239-6.619,47.767-19.38,66.572-34.379c13.595-10.843,27.089-23.398,32.641-41.643c4.798-15.681,3.755-33.565-0.833-49.865     c-4.761-17.089-13.08-33.527-21.838-49.378c-5.655-10.234-11.575-20.294-16.207-31.056c-5.382-12.584-9.002-26.099-9.603-39.802     c-0.653-15.007,2.302-29.732,8.233-43.765c5.379-12.73,13.313-24.355,21.496-35.437"/>
			
				<path style="fill:none;stroke:#000000;stroke-width:4.6912;stroke-linecap:round;stroke-linejoin:round;stroke-miterlimit:10;stroke-dasharray:0,6.3529,0,6.3529,0,6.3529;" d="     M-111.539,348.496c7.621-17.448,24.386-31.427,42.593-39.853c18.198-8.42,37.953-11.143,56.646-15.674     c25.418-6.162,48.29-18.345,67.583-32.758c14.318-10.696,28.568-23.253,34.543-41.856c5.163-15.994,4.171-34.343-0.571-51.021     c-4.907-17.427-13.542-34.095-22.669-50.111c-5.901-10.354-12.093-20.513-16.948-31.424C44,73.049,40.194,59.302,39.519,45.337     c-0.734-15.289,2.27-30.295,8.274-44.601c5.445-12.98,13.46-24.874,21.748-36.195"/>
			
				<path style="fill:none;stroke:#000000;stroke-width:4.4706;stroke-linecap:round;stroke-linejoin:round;stroke-miterlimit:10;stroke-dasharray:0,6.1765,0,6.1765,0,6.1765;" d="     M-108.968,352.764c7.468-18.037,24.624-32.462,43.3-40.988c18.667-8.52,38.947-11.043,58.187-15.339     c25.595-5.715,48.822-17.294,68.595-31.138c15.049-10.536,30.047-23.108,36.446-42.068c5.529-16.307,4.588-35.12-0.309-52.177     c-5.053-17.765-14.004-34.663-23.501-50.844c-6.147-10.474-12.611-20.732-17.689-31.792     c-5.894-12.915-9.887-26.895-10.637-41.121c-0.816-15.572,2.238-30.859,8.314-45.438c5.512-13.229,13.607-25.392,21.999-36.952"/>
			
				<path style="fill:none;stroke:#000000;stroke-width:4.25;stroke-linecap:round;stroke-linejoin:round;stroke-miterlimit:10;stroke-dasharray:0,6,0,6,0,6;" d="     M-106.397,357.032c7.315-18.625,24.861-33.497,44.007-42.122c19.137-8.62,39.94-10.951,59.728-15.004     c25.771-5.278,49.361-16.227,69.606-29.518c15.786-10.363,31.526-22.963,38.349-42.281c5.895-16.62,5.005-35.898-0.047-53.332     c-5.199-18.104-14.466-35.23-24.333-51.577c-6.393-10.593-13.13-20.95-18.43-32.16c-6.15-13.08-10.329-27.292-11.154-41.78     c-0.897-15.854,2.206-31.423,8.355-46.274c5.579-13.479,13.754-25.91,22.25-37.71"/>
			
				<path style="fill:none;stroke:#000000;stroke-width:4.0294;stroke-linecap:round;stroke-linejoin:round;stroke-miterlimit:10;stroke-dasharray:0,5.8235,0,5.8235,0,5.8235;" d="     M-103.826,361.301c7.163-19.214,25.099-34.532,44.714-43.257c19.606-8.72,40.932-10.868,61.269-14.668     c25.947-4.849,49.905-15.145,70.618-27.897c16.528-10.176,33.005-22.817,40.251-42.493c6.261-16.933,5.421-36.676,0.215-54.488     c-5.345-18.442-14.962-35.777-25.164-52.311c-6.661-10.699-13.648-21.169-19.171-32.528     c-6.406-13.246-10.772-27.69-11.671-42.439c-0.979-16.136,2.175-31.986,8.396-47.111C71.275-9.62,79.531-22.32,88.132-34.359"/>
			
				<path style="fill:none;stroke:#000000;stroke-width:3.8088;stroke-linecap:round;stroke-linejoin:round;stroke-miterlimit:10;stroke-dasharray:0,5.6471,0,5.6471,0,5.6471;" d="     M-101.254,365.569c7.01-19.802,25.337-35.567,45.42-44.392c20.076-8.82,41.924-10.792,62.81-14.333     c26.122-4.429,50.452-14.049,71.629-26.277c17.275-9.975,34.484-22.672,42.154-42.706c6.626-17.246,5.838-37.454,0.477-55.644     c-5.491-18.78-15.424-36.344-25.996-53.044c-6.907-10.819-14.167-21.388-19.912-32.895C68.666,82.867,64.114,68.19,63.14,53.18     c-1.061-16.418,2.143-32.55,8.436-47.947c5.712-13.978,14.048-26.948,22.753-39.224"/>
			
				<path style="fill:none;stroke:#000000;stroke-width:3.5882;stroke-linecap:round;stroke-linejoin:round;stroke-miterlimit:10;stroke-dasharray:0,5.4706,0,5.4706,0,5.4706;" d="     M-98.683,369.837c6.857-20.391,25.574-36.602,46.127-45.527c20.545-8.92,42.917-10.724,64.351-13.998     c26.299-4.017,51.001-12.939,72.641-24.656c18.026-9.76,35.963-22.527,44.056-42.919c6.992-17.559,6.255-38.232,0.739-56.799     c-5.637-19.119-15.886-36.911-26.827-53.777c-7.153-10.938-14.685-21.607-20.653-33.263     C74.832,85.322,70.094,70.413,69.045,55.14c-1.142-16.701,2.111-33.114,8.477-48.783C83.3-7.871,91.717-21.109,100.526-33.625"/>
			
				<path style="fill:none;stroke:#000000;stroke-width:3.3677;stroke-linecap:round;stroke-linejoin:round;stroke-miterlimit:10;stroke-dasharray:0,5.2941,0,5.2941,0,5.2941;" d="     M-96.112,374.105c6.705-20.979,25.812-37.637,46.834-46.661c21.015-9.02,43.909-10.664,65.892-13.663     c26.476-3.612,51.55-11.816,73.652-23.036c18.779-9.532,37.442-22.382,45.959-43.131c7.358-17.872,6.671-39.01,1.001-57.955     c-5.783-19.457-16.347-37.479-27.659-54.511c-7.398-11.058-15.204-21.826-21.394-33.631     c-7.175-13.742-12.099-28.883-13.222-44.417c-1.224-16.983,2.079-33.678,8.518-49.62c5.845-14.477,14.342-27.985,23.256-40.739"/>
			
				<path style="fill:none;stroke:#000000;stroke-width:3.1471;stroke-linecap:round;stroke-linejoin:round;stroke-miterlimit:10;stroke-dasharray:0,5.1177,0,5.1177,0,5.1177;" d="     M-93.541,378.374c6.552-21.568,26.05-38.672,47.54-47.796c21.484-9.12,44.902-10.611,67.434-13.327     c26.655-3.213,52.097-10.682,74.664-21.416c19.533-9.291,38.921-22.236,47.861-43.344c7.723-18.185,7.088-39.787,1.263-59.11     c-5.929-19.796-16.809-38.046-28.491-55.244c-7.644-11.177-15.722-22.045-22.134-33.999     c-7.431-13.908-12.541-29.281-13.74-45.076C79.55,41.797,82.903,24.82,89.414,8.605c5.911-14.727,14.49-28.503,23.507-41.497"/>
			
				<path style="fill:none;stroke:#000000;stroke-width:2.9265;stroke-linecap:round;stroke-linejoin:round;stroke-miterlimit:10;stroke-dasharray:0,4.9412,0,4.9412,0,4.9412;" d="     M-90.97,382.642c6.399-22.156,26.287-39.707,48.247-48.931c21.954-9.22,45.896-10.566,68.975-12.992     c26.836-2.821,52.642-9.536,75.675-19.795c20.288-9.037,40.4-22.091,49.764-43.556c8.089-18.498,7.505-40.565,1.525-60.266     c-6.075-20.134-17.271-38.613-29.323-55.977c-7.89-11.297-16.241-22.264-22.875-34.367     c-7.687-14.073-12.984-29.679-14.257-45.736c-1.387-17.547,2.016-34.805,8.599-51.293c5.978-14.976,14.637-29.022,23.758-42.255"/>
			
				<path style="fill:none;stroke:#000000;stroke-width:2.7059;stroke-linecap:round;stroke-linejoin:round;stroke-miterlimit:10;stroke-dasharray:0,4.7647,0,4.7647,0,4.7647;" d="     M-88.398,386.91c6.246-22.745,26.525-40.742,48.954-50.066c22.423-9.32,46.891-10.528,70.516-12.657     c27.018-2.435,53.184-8.379,76.687-18.175c21.043-8.77,41.879-21.945,51.666-43.769c8.455-18.811,7.921-41.343,1.787-61.422     c-6.221-20.472-17.733-39.18-30.154-56.71c-8.136-11.416-16.759-22.483-23.616-34.735c-7.943-14.239-13.426-30.076-14.774-46.395     c-1.469-17.83,1.984-35.369,8.639-52.129c6.045-15.226,14.784-29.54,24.009-43.012"/>
			
				<path style="fill:none;stroke:#000000;stroke-width:2.4853;stroke-linecap:round;stroke-linejoin:round;stroke-miterlimit:10;stroke-dasharray:0,4.5882,0,4.5882,0,4.5882;" d="     M-85.827,391.178c6.094-23.333,26.763-41.777,49.66-51.2c22.893-9.42,47.887-10.497,72.057-12.322     c27.203-2.054,53.722-7.213,77.698-16.554c21.796-8.492,43.358-21.8,53.569-43.982c8.821-19.124,8.338-42.121,2.048-62.577     c-6.367-20.811-18.194-39.748-30.986-57.444c-8.382-11.536-17.278-22.702-24.357-35.102     c-8.199-14.404-13.868-30.474-15.291-47.054c-1.55-18.112,1.952-35.932,8.68-52.966c6.111-15.475,14.931-30.059,24.261-43.769"/>
			
				<path style="fill:none;stroke:#000000;stroke-width:2.2647;stroke-linecap:round;stroke-linejoin:round;stroke-miterlimit:10;stroke-dasharray:0,4.4118,0,4.4118,0,4.4118;" d="     M-83.256,395.447c5.941-23.921,27.001-42.813,50.367-52.335c23.362-9.52,48.885-10.473,73.598-11.986     c27.39-1.678,54.256-6.038,78.709-14.934c22.549-8.203,44.837-21.655,55.472-44.194c9.186-19.437,8.755-42.899,2.31-63.733     c-6.514-21.149-18.656-40.315-31.817-58.177c-8.628-11.655-17.796-22.921-25.098-35.47     c-8.455-14.569-14.311-30.872-15.808-47.714c-1.632-18.394,1.921-36.496,8.721-53.802c6.178-15.725,15.078-30.577,24.512-44.527"/>
			
				<path style="fill:none;stroke:#000000;stroke-width:2.0441;stroke-linecap:round;stroke-linejoin:round;stroke-miterlimit:10;stroke-dasharray:0,4.2353,0,4.2353,0,4.2353;" d="     M-80.685,399.715c5.788-24.51,27.238-43.848,51.074-53.47c23.832-9.62,49.884-10.455,75.139-11.651     c27.58-1.306,54.784-4.855,79.721-13.314c23.3-7.903,46.316-21.51,57.374-44.407c9.552-19.75,9.171-43.676,2.572-64.888     c-6.66-21.488-19.118-40.882-32.649-58.91c-8.873-11.775-18.315-23.14-25.839-35.838c-8.711-14.735-14.753-31.269-16.325-48.373     c-1.714-18.676,1.889-37.06,8.761-54.638c6.244-15.974,15.225-31.096,24.764-45.284"/>
			
				<path style="fill:none;stroke:#000000;stroke-width:1.8235;stroke-linecap:round;stroke-linejoin:round;stroke-miterlimit:10;stroke-dasharray:0,4.0588,0,4.0588,0,4.0588;" d="     M-78.114,403.983c5.636-25.098,27.476-44.883,51.781-54.605c24.301-9.72,50.885-10.443,76.68-11.316     c27.773-0.939,55.308-3.664,80.732-11.693c24.048-7.594,47.796-21.364,59.277-44.619c9.918-20.063,9.588-44.454,2.834-66.044     c-6.806-21.826-19.579-41.45-33.481-59.643c-9.119-11.894-18.833-23.359-26.58-36.206c-8.967-14.9-15.196-31.667-16.842-49.032     c-1.795-18.958,1.857-37.623,8.802-55.475c6.311-16.224,15.372-31.615,25.015-46.042"/>
			
				<path style="fill:none;stroke:#000000;stroke-width:1.6029;stroke-linecap:round;stroke-linejoin:round;stroke-miterlimit:10;stroke-dasharray:0,3.8823,0,3.8823,0,3.8823;" d="     M-75.543,408.251c5.483-25.687,27.714-45.918,52.487-55.74c24.771-9.82,51.888-10.438,78.221-10.98     c27.968-0.576,55.825-2.467,81.744-10.073c24.794-7.276,49.275-21.219,61.179-44.832c10.283-20.376,10.005-45.232,3.096-67.199     c-6.952-22.164-20.041-42.017-34.312-60.377c-9.365-12.014-19.352-23.577-27.321-36.574     c-9.224-15.066-15.638-32.065-17.359-49.692c-1.877-19.241,1.825-38.187,8.843-56.311c6.377-16.473,15.519-32.133,25.266-46.799"/>
			
				<path style="fill:none;stroke:#000000;stroke-width:1.3823;stroke-linecap:round;stroke-linejoin:round;stroke-miterlimit:10;stroke-dasharray:0,3.7059,0,3.7059,0,3.7059;" d="     M-72.971,412.52c5.33-26.275,27.952-46.953,53.194-56.874c25.24-9.92,52.912-9.619,79.763-10.645     c28.147-1.075,56.337-1.264,82.755-8.452c25.537-6.949,50.754-21.074,63.082-45.044c10.649-20.689,10.421-46.01,3.358-68.355     c-7.098-22.503-20.503-42.584-35.144-61.11c-9.611-12.133-19.87-23.796-28.062-36.942c-9.48-15.231-16.08-32.463-17.876-50.351     c-1.958-19.523,1.794-38.751,8.883-57.148c6.444-16.723,15.667-32.652,25.518-47.557"/>
			
				<path style="fill:none;stroke:#000000;stroke-width:1.1618;stroke-linecap:round;stroke-linejoin:round;stroke-miterlimit:10;stroke-dasharray:0,3.5294,0,3.5294,0,3.5294;" d="     M-70.4,416.788c5.177-26.864,28.189-47.988,53.901-58.009c25.71-10.02,53.905-9.815,81.304-10.31     c28.364-0.513,56.843-0.055,83.767-6.832c26.277-6.614,52.233-20.928,64.984-45.257c11.015-21.003,10.838-46.788,3.62-69.511     c-7.244-22.841-20.965-43.151-35.976-61.843c-9.857-12.253-20.388-24.015-28.803-37.309c-9.736-15.397-16.523-32.86-18.394-51.01     c-2.04-19.805,1.762-39.315,8.924-57.984c6.51-16.972,15.814-33.17,25.769-48.314"/>
			
				<path style="fill:none;stroke:#000000;stroke-width:0.9412;stroke-linecap:round;stroke-linejoin:round;stroke-miterlimit:10;stroke-dasharray:0,3.3529,0,3.3529,0,3.3529;" d="     M-67.829,421.056c5.025-27.452,28.427-49.023,54.607-59.144c26.179-10.12,54.91-10.458,82.845-9.975     c28.573,0.494,57.343,1.158,84.778-5.211c27.014-6.272,53.712-20.783,66.887-45.47c11.381-21.315,11.255-47.566,3.882-70.666     c-7.39-23.18-21.426-43.719-36.807-62.577c-10.103-12.372-20.907-24.234-29.544-37.677c-9.992-15.562-16.965-33.258-18.911-51.67     c-2.122-20.087,1.73-39.878,8.965-58.821c6.577-17.222,15.961-33.689,26.02-49.072"/>
			
				<path style="fill:none;stroke:#000000;stroke-width:0.7206;stroke-linecap:round;stroke-linejoin:round;stroke-miterlimit:10;stroke-dasharray:0,3.1765,0,3.1765,0,3.1765;" d="     M-65.258,425.324c4.872-28.041,28.665-50.058,55.314-60.279c26.649-10.22,55.922-10.475,84.386-9.639     c28.78,0.845,57.837,2.376,85.789-3.591c27.747-5.923,55.191-20.638,68.79-45.682c11.746-21.629,11.671-48.343,4.144-71.822     c-7.536-23.518-21.888-44.286-37.639-63.31c-10.348-12.492-21.425-24.453-30.284-38.045     c-10.248-15.728-17.408-33.656-19.428-52.329c-2.203-20.369,1.698-40.442,9.005-59.657c6.644-17.472,16.108-34.207,26.271-49.829     "/>
			
				<path style="fill:none;stroke:#000000;stroke-width:0.5;stroke-linecap:round;stroke-linejoin:round;stroke-miterlimit:10;stroke-dasharray:0,3,0,3,0,3;" d="     M-62.687,429.593c4.719-28.629,28.902-51.093,56.021-61.413c27.118-10.32,56.936-10.497,85.927-9.304     c28.991,1.193,58.325,3.598,86.801-1.971c28.476-5.569,56.67-20.493,70.692-45.895c12.112-21.941,12.088-49.121,4.406-72.977     c-7.682-23.856-22.35-44.853-38.471-64.043c-10.594-12.611-21.944-24.672-31.025-38.413     c-10.504-15.893-17.85-34.053-19.945-52.988c-4.362-39.431,14.009-77.778,35.568-111.08"/>
		</g>
	</g>
</g>
<script xmlns=""/></svg>